<?xml version="1.0" encoding="UTF-8" standalone="no"?><svg xmlns="http://www.w3.org/2000/svg" xmlns:xlink="http://www.w3.org/1999/xlink" contentStyleType="text/css" height="457px" preserveAspectRatio="none" style="width:162px;height:457px;background:#FFFFFF;" version="1.1" viewBox="0 0 162 457" width="162px" zoomAndPan="magnify"><defs/><g><!--MD5=[7fd4401f5c5cb0e3d029c879cad30c04]
class Animal--><g id="elem_Animal"><rect codeLine="1" fill="#F1F1F1" height="96.8906" id="Animal" rx="2.5" ry="2.5" style="stroke:#181818;stroke-width:0.5;" width="113" x="24.5" y="7"/><ellipse cx="53.9" cy="23" fill="#ADD1B2" rx="11" ry="11" style="stroke:#181818;stroke-width:1.0;"/><path d="M56.2438,18.6719 C55.3063,18.2344 54.7125,18.0938 53.8375,18.0938 C51.2125,18.0938 49.2125,20.1719 49.2125,22.8906 L49.2125,24.0156 C49.2125,26.5938 51.3219,28.4844 54.2125,28.4844 C55.4313,28.4844 56.5875,28.1875 57.3375,27.6406 C57.9156,27.2344 58.2438,26.7813 58.2438,26.3906 C58.2438,25.9375 57.8531,25.5469 57.3844,25.5469 C57.1656,25.5469 56.9625,25.625 56.775,25.8125 C56.3219,26.2969 56.3219,26.2969 56.1344,26.3906 C55.7125,26.6563 55.025,26.7813 54.2594,26.7813 C52.2125,26.7813 50.9156,25.6875 50.9156,23.9844 L50.9156,22.8906 C50.9156,21.1094 52.1656,19.7969 53.9,19.7969 C54.4781,19.7969 55.0875,19.9531 55.5563,20.2031 C56.0406,20.4844 56.2125,20.7031 56.3063,21.1094 C56.3688,21.5156 56.4,21.6406 56.5406,21.7656 C56.6813,21.9063 56.9156,22.0156 57.1344,22.0156 C57.4,22.0156 57.6656,21.875 57.8375,21.6563 C57.9469,21.5 57.9781,21.3125 57.9781,20.8906 L57.9781,19.4688 C57.9781,19.0313 57.9625,18.9063 57.8688,18.75 C57.7125,18.4844 57.4313,18.3438 57.1344,18.3438 C56.8375,18.3438 56.6344,18.4375 56.4156,18.75 L56.2438,18.6719 Z " fill="#000000"/><text fill="#000000" font-family="sans-serif" font-size="14" lengthAdjust="spacing" textLength="49" x="71.1" y="27.8467">Animal</text><line style="stroke:#181818;stroke-width:0.5;" x1="25.5" x2="136.5" y1="39" y2="39"/><ellipse cx="35.5" cy="50" fill="none" rx="3" ry="3" style="stroke:#038048;stroke-width:1.0;"/><text fill="#000000" font-family="sans-serif" font-size="14" lengthAdjust="spacing" textLength="66" x="44.5" y="55.9951">float size</text><ellipse cx="35.5" cy="66.2969" fill="none" rx="3" ry="3" style="stroke:#038048;stroke-width:1.0;"/><text fill="#000000" font-family="sans-serif" font-size="14" lengthAdjust="spacing" textLength="87" x="44.5" y="72.292">float weight</text><ellipse cx="35.5" cy="82.5938" fill="none" rx="3" ry="3" style="stroke:#038048;stroke-width:1.0;"/><text fill="#000000" font-family="sans-serif" font-size="14" lengthAdjust="spacing" textLength="64" x="44.5" y="88.5889">float age</text><line style="stroke:#181818;stroke-width:0.5;" x1="25.5" x2="136.5" y1="95.8906" y2="95.8906"/></g><!--MD5=[60678ae622d5a3bc28cb05c7f1d2b390]
class flyingAnimal--><g id="elem_flyingAnimal"><rect codeLine="7" fill="#F1F1F1" height="113.1875" id="flyingAnimal" rx="2.5" ry="2.5" style="stroke:#181818;stroke-width:0.5;" width="148" x="7" y="164"/><ellipse cx="34.15" cy="180" fill="#ADD1B2" rx="11" ry="11" style="stroke:#181818;stroke-width:1.0;"/><path d="M36.4938,175.6719 C35.5563,175.2344 34.9625,175.0938 34.0875,175.0938 C31.4625,175.0938 29.4625,177.1719 29.4625,179.8906 L29.4625,181.0156 C29.4625,183.5938 31.5719,185.4844 34.4625,185.4844 C35.6813,185.4844 36.8375,185.1875 37.5875,184.6406 C38.1656,184.2344 38.4938,183.7813 38.4938,183.3906 C38.4938,182.9375 38.1031,182.5469 37.6344,182.5469 C37.4156,182.5469 37.2125,182.625 37.025,182.8125 C36.5719,183.2969 36.5719,183.2969 36.3844,183.3906 C35.9625,183.6563 35.275,183.7813 34.5094,183.7813 C32.4625,183.7813 31.1656,182.6875 31.1656,180.9844 L31.1656,179.8906 C31.1656,178.1094 32.4156,176.7969 34.15,176.7969 C34.7281,176.7969 35.3375,176.9531 35.8063,177.2031 C36.2906,177.4844 36.4625,177.7031 36.5563,178.1094 C36.6188,178.5156 36.65,178.6406 36.7906,178.7656 C36.9313,178.9063 37.1656,179.0156 37.3844,179.0156 C37.65,179.0156 37.9156,178.875 38.0875,178.6563 C38.1969,178.5 38.2281,178.3125 38.2281,177.8906 L38.2281,176.4688 C38.2281,176.0313 38.2125,175.9063 38.1188,175.75 C37.9625,175.4844 37.6813,175.3438 37.3844,175.3438 C37.0875,175.3438 36.8844,175.4375 36.6656,175.75 L36.4938,175.6719 Z " fill="#000000"/><text fill="#000000" font-family="sans-serif" font-size="14" lengthAdjust="spacing" textLength="89" x="50.85" y="184.8467">flyingAnimal</text><line style="stroke:#181818;stroke-width:0.5;" x1="8" x2="154" y1="196" y2="196"/><ellipse cx="18" cy="207" fill="none" rx="3" ry="3" style="stroke:#038048;stroke-width:1.0;"/><text fill="#000000" font-family="sans-serif" font-size="14" lengthAdjust="spacing" textLength="122" x="27" y="212.9951">string flyingType</text><ellipse cx="18" cy="223.2969" fill="none" rx="3" ry="3" style="stroke:#038048;stroke-width:1.0;"/><text fill="#000000" font-family="sans-serif" font-size="14" lengthAdjust="spacing" textLength="118" x="27" y="229.292">float flyingForce</text><ellipse cx="18" cy="239.5938" fill="none" rx="3" ry="3" style="stroke:#038048;stroke-width:1.0;"/><text fill="#000000" font-family="sans-serif" font-size="14" lengthAdjust="spacing" textLength="86" x="27" y="245.5889">float Height</text><line style="stroke:#181818;stroke-width:0.5;" x1="8" x2="154" y1="252.8906" y2="252.8906"/><ellipse cx="18" cy="263.8906" fill="#84BE84" rx="3" ry="3" style="stroke:#038048;stroke-width:1.0;"/><text fill="#000000" font-family="sans-serif" font-size="14" lengthAdjust="spacing" textLength="28" x="27" y="269.8857">fly()</text></g><!--MD5=[90f66edba3ee2ef2943b92b287a7e5d6]
class Bird--><g id="elem_Bird"><rect codeLine="14" fill="#F1F1F1" height="113.1875" id="Bird" rx="2.5" ry="2.5" style="stroke:#181818;stroke-width:0.5;" width="96" x="33" y="337"/><ellipse cx="63.75" cy="353" fill="#ADD1B2" rx="11" ry="11" style="stroke:#181818;stroke-width:1.0;"/><path d="M66.0938,348.6719 C65.1563,348.2344 64.5625,348.0938 63.6875,348.0938 C61.0625,348.0938 59.0625,350.1719 59.0625,352.8906 L59.0625,354.0156 C59.0625,356.5938 61.1719,358.4844 64.0625,358.4844 C65.2813,358.4844 66.4375,358.1875 67.1875,357.6406 C67.7656,357.2344 68.0938,356.7813 68.0938,356.3906 C68.0938,355.9375 67.7031,355.5469 67.2344,355.5469 C67.0156,355.5469 66.8125,355.625 66.625,355.8125 C66.1719,356.2969 66.1719,356.2969 65.9844,356.3906 C65.5625,356.6563 64.875,356.7813 64.1094,356.7813 C62.0625,356.7813 60.7656,355.6875 60.7656,353.9844 L60.7656,352.8906 C60.7656,351.1094 62.0156,349.7969 63.75,349.7969 C64.3281,349.7969 64.9375,349.9531 65.4063,350.2031 C65.8906,350.4844 66.0625,350.7031 66.1563,351.1094 C66.2188,351.5156 66.25,351.6406 66.3906,351.7656 C66.5313,351.9063 66.7656,352.0156 66.9844,352.0156 C67.25,352.0156 67.5156,351.875 67.6875,351.6563 C67.7969,351.5 67.8281,351.3125 67.8281,350.8906 L67.8281,349.4688 C67.8281,349.0313 67.8125,348.9063 67.7188,348.75 C67.5625,348.4844 67.2813,348.3438 66.9844,348.3438 C66.6875,348.3438 66.4844,348.4375 66.2656,348.75 L66.0938,348.6719 Z " fill="#000000"/><text fill="#000000" font-family="sans-serif" font-size="14" lengthAdjust="spacing" textLength="29" x="81.25" y="357.8467">Bird</text><line style="stroke:#181818;stroke-width:0.5;" x1="34" x2="128" y1="369" y2="369"/><ellipse cx="44" cy="380" fill="none" rx="3" ry="3" style="stroke:#038048;stroke-width:1.0;"/><text fill="#000000" font-family="sans-serif" font-size="14" lengthAdjust="spacing" textLength="64" x="53" y="385.9951">int wings</text><ellipse cx="44" cy="396.2969" fill="none" rx="3" ry="3" style="stroke:#038048;stroke-width:1.0;"/><text fill="#000000" font-family="sans-serif" font-size="14" lengthAdjust="spacing" textLength="70" x="53" y="402.292">int health</text><line style="stroke:#181818;stroke-width:0.5;" x1="34" x2="128" y1="409.5938" y2="409.5938"/><ellipse cx="44" cy="420.5938" fill="#84BE84" rx="3" ry="3" style="stroke:#038048;stroke-width:1.0;"/><text fill="#000000" font-family="sans-serif" font-size="14" lengthAdjust="spacing" textLength="34" x="53" y="426.5889">eat()</text><ellipse cx="44" cy="436.8906" fill="#84BE84" rx="3" ry="3" style="stroke:#038048;stroke-width:1.0;"/><text fill="#000000" font-family="sans-serif" font-size="14" lengthAdjust="spacing" textLength="53" x="53" y="442.8857">speak()</text></g><!--MD5=[1aefac790aed4522090a58f257adc501]
reverse link Animal to flyingAnimal--><g id="link_Animal_flyingAnimal"><path d="M81,124.19 C81,137.376 81,151.059 81,163.803 " fill="none" id="Animal-backto-flyingAnimal" style="stroke:#181818;stroke-width:1.0;"/><polygon fill="none" points="74.0001,124.085,81,104.085,88.0001,124.084,74.0001,124.085" style="stroke:#181818;stroke-width:1.0;"/></g><!--MD5=[09ad2f213c6e0e08297e920d1b3495ba]
reverse link flyingAnimal to Bird--><g id="link_flyingAnimal_Bird"><path d="M81,297.463 C81,310.755 81,324.359 81,336.967 " fill="none" id="flyingAnimal-backto-Bird" style="stroke:#181818;stroke-width:1.0;"/><polygon fill="none" points="74.0001,297.019,81,277.019,88.0001,297.019,74.0001,297.019" style="stroke:#181818;stroke-width:1.0;"/></g><!--MD5=[4a6b7614aeeadf6e5c65b0d9d2b658b7]
@startuml
class Animal {
  +float size
  +float weight
  +float age
}

class flyingAnimal extends Animal {
  +string flyingType
  +float flyingForce
  +float Height
  +fly()
}

class Bird extends flyingAnimal {
  +int wings
  +int health
  +eat()
  +speak()
}
@enduml

PlantUML version 1.2022.3beta2(Unknown compile time)
(GPL source distribution)
Java Runtime: Java(TM) SE Runtime Environment
JVM: Java HotSpot(TM) 64-Bit Server VM
Default Encoding: UTF-8
Language: en
Country: US
--></g></svg>